<svg width="51" height="16" viewBox="0 0 406 178" fill="none" xmlns="http://www.w3.org/2000/svg">
<path d="M63.1671 39.5351C67.7423 37.7816 72.6225 36.8464 77.6857 36.8464C99.85 36.8464 118.354 54.9423 122.584 79L154 71.6354C146.802 30.7677 115.365 0 77.6857 0C69.0437 0 60.7677 1.6132 53 4.6058L63.1671 39.5351Z" fill="#FFCB05"/>
<path d="M26.5366 156L48 128.415C38.4288 118.769 32.3902 104.684 32.3902 88.9883C32.3902 73.3157 38.4288 59.2313 48 49.6082L26.5366 22C10.2696 38.3967 0 62.3378 0 88.9883C0 115.662 10.2696 139.603 26.5366 156" fill="#00A4E0"/>
<path d="M122.584 99C118.334 123.049 99.85 141.132 77.7061 141.132C72.6225 141.132 67.722 140.196 63.1671 138.418L53 173.415C60.7677 176.386 69.064 178 77.7061 178C115.345 178 146.761 147.261 154 106.416L122.584 99Z" fill="#EF4123"/>
<path d="M181.238 129.73C180.201 127.824 178.818 124.778 177.964 122.523C172.981 109.319 172.757 95.6492 176.947 82.5375C181.564 68.1472 190.391 57.1511 201.801 51.5252C216.139 44.4812 231.983 45.8528 245.732 55.1751C254.457 60.894 260.64 69.7281 265.338 82.2353C265.928 83.8394 266.457 85.5365 266.986 87.0011L181.238 129.73ZM209.875 72.7503C199.686 77.7485 194.438 88.6749 195.536 101.461L238.654 80.236C231.231 70.286 221.59 66.9849 209.875 72.7503V72.7503ZM244.024 118.92C244.003 118.92 244.003 118.943 244.003 118.943L243.108 118.246C240.525 123.012 236.519 126.894 231.454 129.405C221.814 134.194 212.885 132.962 206.458 126.522L205.868 127.545C205.868 127.545 205.868 127.522 205.848 127.522L194.906 146.236C197.631 148.398 200.54 150.211 203.591 151.676C215.672 157.418 228.038 157.139 240.22 151.095C249.027 146.724 255.942 140.075 260.661 131.636L244.024 118.92ZM296.945 24V128.01L311.1 134.566L303.066 156L287.446 148.561C283.948 146.817 281.548 144.167 279.759 141.168C278.03 138.123 276.748 133.915 276.748 128.289V24H296.945ZM333.595 101.531C333.595 92.6735 337.032 84.7228 342.442 79.3293L327.92 60.8242C318.076 70.7742 311.873 85.304 311.873 101.484C311.853 117.688 318.056 132.241 327.88 142.191L342.381 123.686C336.991 118.269 333.595 110.365 333.595 101.531V101.531ZM359.384 131.032C356.537 131.032 353.771 130.474 351.208 129.498L344.272 153.048C349.011 154.861 354.076 155.861 359.364 155.861C382.346 155.884 401.525 137.239 405.98 112.48L384.665 107.505C382.245 120.966 371.852 131.055 359.384 131.032V131.032ZM359.445 47.2011C354.177 47.2011 349.113 48.1775 344.374 49.9676L351.249 73.5407C353.832 72.5643 356.577 72.0296 359.425 72.0296C371.913 72.0528 382.326 82.1888 384.685 95.6724L406 90.7439C401.627 65.9387 382.448 47.2244 359.445 47.2011V47.2011Z" fill="white"/>
</svg>
