<svg width="51" height="16" viewBox="0 0 513 132" fill="none" xmlns="http://www.w3.org/2000/svg">
<path fill-rule="evenodd" clip-rule="evenodd" d="M0.00512695 8.19275L33.453 8.06775L42.7812 83.9532L84.1978 8.19796L120.208 8.29171L51.2812 131.135H16.4999L0.00512695 8.19275Z" fill="#013F88"/>
<path fill-rule="evenodd" clip-rule="evenodd" d="M63.5989 131.135L139.12 8.06775H171.24L193.854 131.135H160.213L155.844 105.005L116.37 105.063L101.354 131.135H63.5989ZM132.396 76.6771L147.219 50.8386L151.588 76.6771H132.396Z" fill="#013F88"/>
<path fill-rule="evenodd" clip-rule="evenodd" d="M220.547 8.45312L254.219 8.51042L234.167 102.146H278.198L271.896 131.604L194.338 131.135L220.547 8.45312Z" fill="#013F88"/>
<path fill-rule="evenodd" clip-rule="evenodd" d="M303 8.7135L380.354 8.901L374.719 37.0312H330.557L326.63 54.2656H370.854L364.328 86.0052H320.172L316.177 103.49H360.906L355.141 131.562L276.708 131.604L303 8.7135Z" fill="#013F88"/>
<path fill-rule="evenodd" clip-rule="evenodd" d="M390.203 36.7448L396.099 8.71354H453.609L472.49 0.0156251L512.781 -0.015625L496.438 28.6198L456.651 28.651L437.901 36.7448H390.203Z" fill="#FCAF24"/>
<path fill-rule="evenodd" clip-rule="evenodd" d="M386.583 54.3385L427.828 54.401L446.39 46.4219H486.239L468.719 77.7448H428.932L410.307 85.8542H380.354L386.583 54.3385Z" fill="#EC1A3A"/>
<path fill-rule="evenodd" clip-rule="evenodd" d="M376.224 103.469L400.078 103.531L418.672 95.4531H458.901L443 123.583H403.083L384.458 131.604H370.521L376.224 103.469Z" fill="#013F88"/>
<path fill-rule="evenodd" clip-rule="evenodd" d="M453.609 8.71354L437.901 36.7448L456.651 28.651L472.489 0.015625L453.609 8.71354Z" fill="#CF921D"/>
<path fill-rule="evenodd" clip-rule="evenodd" d="M427.828 54.401L410.307 85.8542L428.932 77.7448L446.39 46.4219L427.828 54.401Z" fill="#C3122F"/>
<path fill-rule="evenodd" clip-rule="evenodd" d="M400.078 103.531L384.458 131.604L403.083 123.583L418.672 95.4531L400.078 103.531Z" fill="#002E6E"/>
</svg>
